<svg width="50" height="50" viewBox="0 0 50 50" fill="none" xmlns="http://www.w3.org/2000/svg">
<path d="M25 0C11.25 0 0 11.225 0 25.0501C0 37.5501 9.15 47.925 21.1 49.8V32.3001H14.75V25.0501H21.1V19.525C21.1 13.25 24.825 9.8 30.55 9.8C33.275 9.8 36.125 10.275 36.125 10.275V16.45H32.975C29.875 16.45 28.9 18.375 28.9 20.3501V25.0501H35.85L34.725 32.3001H28.9V49.8C34.791 48.8695 40.1555 45.8638 44.0247 41.325C47.894 36.7865 50.0135 31.0141 50 25.0501C50 11.225 38.75 0 25 0Z" fill="white"/>
</svg>
