<svg width="49" height="49" viewBox="0 0 49 49" fill="none" xmlns="http://www.w3.org/2000/svg">
<path fill-rule="evenodd" clip-rule="evenodd" d="M24.5 36.75C31.2655 36.75 36.75 31.2655 36.75 24.5C36.75 17.7345 31.2655 12.25 24.5 12.25C17.7345 12.25 12.25 17.7345 12.25 24.5C12.25 31.2655 17.7345 36.75 24.5 36.75ZM24.5 32.6667C29.0102 32.6667 32.6667 29.0102 32.6667 24.5C32.6667 19.9897 29.0102 16.3333 24.5 16.3333C19.9897 16.3333 16.3333 19.9897 16.3333 24.5C16.3333 29.0102 19.9897 32.6667 24.5 32.6667Z" fill="white"/>
<path d="M36.75 10.2085C35.6224 10.2085 34.7083 11.1226 34.7083 12.2502C34.7083 13.3777 35.6224 14.2918 36.75 14.2918C37.8776 14.2918 38.7916 13.3777 38.7916 12.2502C38.7916 11.1226 37.8776 10.2085 36.75 10.2085Z" fill="white"/>
<path fill-rule="evenodd" clip-rule="evenodd" d="M3.37686 8.73013C2.04169 11.3505 2.04169 14.7809 2.04169 21.6415V27.3582C2.04169 34.2188 2.04169 37.6492 3.37686 40.2695C4.5513 42.5745 6.42531 44.4486 8.73031 45.6229C11.3507 46.9582 14.7811 46.9582 21.6417 46.9582H27.3584C34.219 46.9582 37.6494 46.9582 40.2697 45.6229C42.5747 44.4486 44.4487 42.5745 45.6231 40.2695C46.9584 37.6492 46.9584 34.2188 46.9584 27.3582V21.6415C46.9584 14.7809 46.9584 11.3505 45.6231 8.73013C44.4487 6.42513 42.5747 4.55112 40.2697 3.37667C37.6494 2.0415 34.219 2.0415 27.3584 2.0415H21.6417C14.7811 2.0415 11.3507 2.0415 8.73031 3.37667C6.42531 4.55112 4.5513 6.42513 3.37686 8.73013ZM27.3584 6.12484H21.6417C18.144 6.12484 15.7663 6.12802 13.9284 6.27817C12.1382 6.42443 11.2227 6.68954 10.5841 7.01494C9.04744 7.79792 7.79811 9.04726 7.01513 10.5839C6.68973 11.2226 6.42462 12.138 6.27835 13.9283C6.12821 15.7661 6.12502 18.1438 6.12502 21.6415V27.3582C6.12502 30.856 6.12821 33.2335 6.27835 35.0714C6.42462 36.8617 6.68973 37.7772 7.01513 38.4158C7.79811 39.9524 9.04744 41.2017 10.5841 41.9847C11.2227 42.3101 12.1382 42.5753 13.9284 42.7215C15.7663 42.8716 18.144 42.8748 21.6417 42.8748H27.3584C30.8561 42.8748 33.2337 42.8716 35.0716 42.7215C36.8619 42.5753 37.7774 42.3101 38.416 41.9847C39.9526 41.2017 41.2019 39.9524 41.9849 38.4158C42.3103 37.7772 42.5755 36.8617 42.7217 35.0714C42.8718 33.2335 42.875 30.856 42.875 27.3582V21.6415C42.875 18.1438 42.8718 15.7661 42.7217 13.9283C42.5755 12.138 42.3103 11.2226 41.9849 10.5839C41.2019 9.04726 39.9526 7.79792 38.416 7.01494C37.7774 6.68954 36.8619 6.42443 35.0716 6.27817C33.2337 6.12802 30.8561 6.12484 27.3584 6.12484Z" fill="white"/>
</svg>
